<svg xmlns="http://www.w3.org/2000/svg" viewBox="0 0 1112 1112" fill="#3C82F6">
<path opacity="0"
	d="
M738.000000,1113.000000 
	C492.027527,1113.000000 246.555054,1113.000000 1.041287,1113.000000 
	C1.041287,742.402405 1.041287,371.804840 1.041287,1.103624 
	C371.556000,1.103624 742.112061,1.103624 1112.833984,1.103624 
	C1112.833984,371.666595 1112.833984,742.333313 1112.833984,1113.000000 
	C988.137756,1113.000000 863.318909,1113.000000 738.000000,1113.000000 
M898.427551,587.041382 
	C898.256836,587.146301 898.086060,587.251282 897.162598,587.281250 
	C888.594116,590.433289 879.817200,593.117554 871.496033,596.824585 
	C845.798889,608.272156 822.802124,623.579407 805.239136,645.983398 
	C790.683105,664.551697 782.133240,685.497986 781.595764,709.354919 
	C781.558533,711.009949 781.843933,712.672180 782.104492,715.866028 
	C805.896790,686.805847 834.944824,668.346130 869.154907,658.125427 
	C869.293640,658.429443 869.432373,658.733459 869.183472,659.734985 
	C864.779419,686.232361 856.373047,711.301331 841.922302,734.072754 
	C836.057495,743.314514 829.484924,752.107178 822.595581,761.326660 
	C807.445007,778.757935 790.525085,794.256348 771.394043,807.202515 
	C728.145996,836.468689 679.939941,850.365051 628.118286,852.287048 
	C571.323914,854.393433 518.749023,839.567444 469.681213,811.498474 
	C466.992645,809.960510 464.922150,809.899536 462.356049,811.163086 
	C435.509308,824.381531 407.367401,833.811462 378.159973,840.257263 
	C344.601318,847.663269 310.892151,849.007263 276.946472,843.515320 
	C270.948975,842.545044 264.982513,841.383423 258.097260,840.147888 
	C259.082733,841.539490 259.412567,842.310852 259.989441,842.775452 
	C277.737793,857.067566 294.644409,872.606384 313.442047,885.356323 
	C369.100494,923.107666 430.688568,945.414429 497.649445,952.980530 
	C540.846863,957.861511 583.830261,956.793457 626.506287,948.960571 
	C670.119751,940.955627 711.916504,927.193604 751.344055,906.601990 
	C805.761841,878.181641 851.782898,839.704163 889.259644,791.130554 
	C924.156494,745.900757 948.519897,695.595764 959.253906,639.302979 
	C962.857483,620.404480 963.957825,601.029053 966.213684,581.872925 
	C966.669067,578.006104 965.610718,575.940430 961.101807,576.434753 
	C952.500244,577.377808 943.840149,577.793091 935.244080,578.775635 
	C931.187683,579.239319 927.223206,580.507446 922.381592,581.234985 
	C918.560730,582.099609 914.739929,582.964172 910.120300,583.801086 
	C909.407227,584.130188 908.694092,584.459351 907.265686,584.608643 
	C904.519836,585.429504 901.773926,586.250366 898.427551,587.041382 
M175.617523,549.870789 
	C176.399033,549.954956 177.180542,550.039124 178.642288,550.561584 
	C179.432404,550.535583 180.222534,550.509583 181.773209,550.825256 
	C187.907745,551.316711 194.060440,552.385620 200.173477,552.193542 
	C220.120499,551.566589 240.098892,551.046753 259.980621,549.439514 
	C291.555908,546.887146 322.440186,540.016296 353.270142,532.989807 
	C356.426300,532.270386 357.863647,530.643127 359.238403,527.865051 
	C367.492126,511.186218 375.140656,494.126190 384.578339,478.129791 
	C416.451019,424.107300 460.360443,382.890869 517.466064,356.230072 
	C524.818848,352.797333 532.253540,349.539764 540.139465,346.368774 
	C540.438904,346.217834 540.738342,346.066895 541.460754,346.214966 
	C542.592712,345.692230 543.724731,345.169495 545.605042,344.681122 
	C559.125793,341.251099 572.544067,337.329224 586.187073,334.485565 
	C623.423035,326.724274 660.736389,328.181458 697.807800,335.533539 
	C728.068665,341.534973 756.418579,352.686554 782.910278,368.758911 
	C826.012085,394.908569 859.396667,429.922302 881.830383,475.161346 
	C883.699829,478.931274 886.009033,481.065857 890.213928,481.977997 
	C914.471069,487.240204 938.321533,493.906921 961.278625,503.498505 
	C961.781250,503.708466 962.476196,503.458099 963.582764,503.393005 
	C961.678284,495.815033 960.098389,488.534546 958.016785,481.400482 
	C937.744141,411.922150 899.508667,354.165222 843.718811,308.222809 
	C797.822327,270.427582 746.115234,243.940613 688.121094,229.850845 
	C662.309875,223.579987 636.246887,219.285019 609.796448,217.617538 
	C577.629333,215.589676 545.545532,216.842499 513.637024,221.751282 
	C469.199493,228.587509 426.888275,241.953995 386.815918,262.424744 
	C324.025269,294.501038 272.453247,339.353882 232.544250,397.524445 
	C216.889145,420.343018 203.764328,444.549072 193.667389,470.325836 
	C191.181046,476.673370 189.623779,483.384766 187.694839,489.969055 
	C187.694839,489.969055 187.658417,489.968384 186.942947,490.321930 
	C183.582947,503.217529 180.222961,516.113159 176.560272,529.555176 
	C176.551544,529.967346 176.542831,530.379517 176.168655,531.465149 
	C175.533661,535.861328 174.759506,540.244263 174.340698,544.660950 
	C174.197983,546.165955 174.949127,547.755859 175.617523,549.870789 
M152.385513,693.332092 
	C144.230072,688.628601 136.074615,683.925049 127.435081,678.942383 
	C127.830887,680.036072 128.022430,680.775452 128.352646,681.446594 
	C134.154633,693.237549 139.534271,705.262695 145.878174,716.755310 
	C160.107941,742.533997 178.244827,765.118469 201.801590,783.142151 
	C238.253418,811.032104 280.099121,822.897766 325.244019,824.164795 
	C372.135712,825.480896 417.195587,815.936523 461.094513,799.819519 
	C504.017761,784.060791 544.234375,762.881104 582.123779,737.682495 
	C621.185059,711.704407 658.996521,683.841736 697.250793,656.657288 
	C720.051086,640.454834 742.225403,623.335266 765.447937,607.772217 
	C795.299744,587.766479 827.247742,571.537048 861.937256,561.586792 
	C893.427917,552.553955 925.652771,549.723083 958.390686,552.182312 
	C987.041260,554.334534 1014.566345,560.860718 1041.104004,571.765015 
	C1045.739380,573.669739 1050.434082,575.430298 1055.101440,577.257446 
	C1053.074341,574.827454 1050.722290,573.218506 1048.395752,571.573486 
	C1045.970459,569.858521 1043.682129,567.920715 1041.141479,566.402283 
	C1000.356812,542.027039 956.209473,527.755066 909.106506,522.047302 
	C865.744446,516.792908 822.608032,518.295654 779.754089,526.191528 
	C743.980103,532.783020 709.421936,543.871704 675.370911,556.541260 
	C668.500549,559.097473 668.643860,559.180969 669.791504,566.353882 
	C673.359619,588.654846 671.664307,610.524109 663.860107,631.778259 
	C662.033203,636.753723 659.517090,641.476135 657.082703,646.832886 
	C655.998779,645.542542 655.620422,645.298340 655.633362,645.077087 
	C655.866272,641.100647 656.283203,637.130737 656.393433,633.152100 
	C656.951477,613.010498 655.226562,593.233276 647.357666,574.350647 
	C644.652832,567.859985 644.783508,567.468872 638.367126,570.756958 
	C615.713684,582.365723 593.082092,594.022644 570.596985,605.953064 
	C527.978271,628.566162 485.991974,652.443359 442.766876,673.821777 
	C397.017029,696.448914 348.551544,711.372742 297.481049,716.772156 
	C247.243774,722.083496 198.794724,716.298035 152.385513,693.332092 
M460.000641,624.180298 
	C465.574402,621.987000 471.240112,620.000427 476.707520,617.568054 
	C523.535095,596.734558 570.326599,575.820007 617.129333,554.930664 
	C621.617004,552.927673 626.107361,550.930786 631.388733,548.578186 
	C628.003052,544.028198 625.346191,540.030090 622.266602,536.389526 
	C604.571533,515.471375 581.555603,503.555847 555.292114,497.326660 
	C551.810974,496.501038 547.905334,495.454681 544.604492,496.235687 
	C531.985474,499.221344 519.469177,502.695648 507.030090,506.378021 
	C460.461304,520.163818 413.954803,534.160034 367.391937,547.965942 
	C336.707794,557.063904 305.380585,563.375977 273.742981,567.856079 
	C238.068100,572.907715 202.243332,575.365540 166.184937,571.432129 
	C137.475449,568.300354 109.744232,561.912231 83.860458,548.791077 
	C76.064903,544.839355 68.606857,540.221741 61.008053,535.917053 
	C60.847816,536.118774 60.629696,536.284119 60.657257,536.374695 
	C61.476635,539.068420 62.322613,541.754028 63.159904,544.442322 
	C71.356758,570.759888 84.430161,594.381592 103.641060,614.165955 
	C131.013306,642.355225 165.081711,658.246521 203.292084,665.339111 
	C246.074112,673.280273 288.828217,671.060486 331.400635,663.130981 
	C375.438751,654.928528 417.723389,640.884338 460.000641,624.180298 
M792.791809,472.065277 
	C724.962524,463.847168 658.003235,470.058136 591.047546,483.646790 
	C591.637939,484.659180 591.778931,485.166351 592.112610,485.420197 
	C592.902100,486.020721 593.748840,486.568207 594.632324,487.019806 
	C617.547668,498.731628 636.787537,514.845642 652.302734,535.361328 
	C654.172241,537.833496 656.016296,538.099426 658.734070,537.121155 
	C672.189758,532.277771 685.650452,527.442505 699.184021,522.823059 
	C723.527100,514.513916 748.314941,508.165070 774.125000,506.600128 
	C778.204712,506.352753 782.291565,506.222992 786.375122,506.038818 
	C786.529541,505.463867 786.683960,504.888916 786.838379,504.313965 
	C776.572754,500.564453 766.307129,496.814941 754.781921,492.605408 
	C756.927124,492.005859 757.531616,491.710846 758.148193,491.682861 
	C779.851990,490.697968 801.394897,491.932465 822.815735,495.784180 
	C830.618103,497.187164 838.583130,497.928253 846.507263,498.359833 
	C862.452087,499.228271 878.421631,499.634216 894.376404,500.334747 
	C897.566895,500.474854 900.737061,501.077545 903.916626,501.466980 
	C903.989441,501.061249 904.062317,500.655518 904.135132,500.249786 
	C868.974792,484.531586 831.569885,477.425415 792.791809,472.065277 
z"/>
<path 
	d="
M152.697876,693.535522 
	C198.794724,716.298035 247.243774,722.083496 297.481049,716.772156 
	C348.551544,711.372742 397.017029,696.448914 442.766876,673.821777 
	C485.991974,652.443359 527.978271,628.566162 570.596985,605.953064 
	C593.082092,594.022644 615.713684,582.365723 638.367126,570.756958 
	C644.783508,567.468872 644.652832,567.859985 647.357666,574.350647 
	C655.226562,593.233276 656.951477,613.010498 656.393433,633.152100 
	C656.283203,637.130737 655.866272,641.100647 655.633362,645.077087 
	C655.620422,645.298340 655.998779,645.542542 657.082703,646.832886 
	C659.517090,641.476135 662.033203,636.753723 663.860107,631.778259 
	C671.664307,610.524109 673.359619,588.654846 669.791504,566.353882 
	C668.643860,559.180969 668.500549,559.097473 675.370911,556.541260 
	C709.421936,543.871704 743.980103,532.783020 779.754089,526.191528 
	C822.608032,518.295654 865.744446,516.792908 909.106506,522.047302 
	C956.209473,527.755066 1000.356812,542.027039 1041.141479,566.402283 
	C1043.682129,567.920715 1045.970459,569.858521 1048.395752,571.573486 
	C1050.722290,573.218506 1053.074341,574.827454 1055.101440,577.257446 
	C1050.434082,575.430298 1045.739380,573.669739 1041.104004,571.765015 
	C1014.566345,560.860718 987.041260,554.334534 958.390686,552.182312 
	C925.652771,549.723083 893.427917,552.553955 861.937256,561.586792 
	C827.247742,571.537048 795.299744,587.766479 765.447937,607.772217 
	C742.225403,623.335266 720.051086,640.454834 697.250793,656.657288 
	C658.996521,683.841736 621.185059,711.704407 582.123779,737.682495 
	C544.234375,762.881104 504.017761,784.060791 461.094513,799.819519 
	C417.195587,815.936523 372.135712,825.480896 325.244019,824.164795 
	C280.099121,822.897766 238.253418,811.032104 201.801590,783.142151 
	C178.244827,765.118469 160.107941,742.533997 145.878174,716.755310 
	C139.534271,705.262695 134.154633,693.237549 128.352646,681.446594 
	C128.022430,680.775452 127.830887,680.036072 127.435081,678.942383 
	C136.074615,683.925049 144.230072,688.628601 152.697876,693.535522 
M359.531738,819.009399 
	C362.154480,818.676270 364.782288,818.378479 367.399139,818.004089 
	C380.968353,816.062744 394.659637,814.710266 408.063416,811.959045 
	C419.175964,809.678162 429.945557,805.730652 440.872803,802.541138 
	C447.833618,800.509521 455.092163,799.188354 461.714935,796.368896 
	C478.303741,789.306580 494.650635,781.667419 511.006134,774.069214 
	C519.356995,770.189758 527.760803,766.319702 535.710693,761.704834 
	C549.801086,753.525574 563.625244,744.880188 577.444031,736.243042 
	C588.633484,729.249390 599.796631,722.194641 610.703003,714.772644 
	C620.909119,707.827209 630.803162,700.418884 640.759705,693.112366 
	C650.751038,685.780151 660.652466,678.325500 670.588196,670.917664 
	C675.850159,666.994324 681.017395,662.936584 686.390442,659.172241 
	C689.331421,657.111816 692.810364,655.807861 695.705078,653.694763 
	C708.714844,644.197266 721.459900,634.332764 734.567688,624.974976 
	C752.951660,611.850464 770.835571,597.972839 791.445129,588.202820 
	C802.951721,582.748169 813.649109,575.471436 825.375427,570.622131 
	C843.032898,563.319885 861.257996,557.516602 880.153076,553.854858 
	C894.146851,551.143066 907.709412,546.698486 922.373474,547.840881 
	C936.269897,548.923401 950.293579,548.287537 964.217651,549.129211 
	C973.431213,549.686157 982.596130,551.345520 991.725586,552.857178 
	C995.569580,553.493713 999.242554,555.109924 1003.036011,556.120300 
	C1007.107483,557.204834 1011.229187,558.101074 1015.329041,559.079529 
	C1015.485291,558.635193 1015.641602,558.190796 1015.797852,557.746460 
	C1014.989929,557.063293 1014.286133,556.138184 1013.356384,555.737915 
	C1008.837708,553.792725 1004.287109,551.913879 999.695129,550.148438 
	C989.411621,546.195068 979.109253,542.289673 968.787781,538.436584 
	C965.405579,537.173950 962.015076,535.760254 958.500061,535.057434 
	C945.718323,532.501770 932.958130,529.621948 920.047974,527.977905 
	C902.747681,525.774841 885.341309,524.148560 867.930237,523.166748 
	C857.359802,522.570679 846.667236,523.294006 836.078918,524.085815 
	C824.119812,524.980042 812.194946,526.450500 800.294373,527.975952 
	C788.834290,529.444885 777.354126,530.937012 766.013794,533.104431 
	C756.500671,534.922729 747.084473,537.418518 737.790222,540.170959 
	C724.392151,544.138611 711.094116,548.464539 697.851807,552.929321 
	C691.391479,555.107544 685.262085,558.278870 678.783203,560.387024 
	C672.822937,562.326355 673.879456,566.461304 674.411072,570.831970 
	C675.751526,581.854370 676.514954,592.995911 674.375549,603.903931 
	C672.130371,615.351013 669.387390,626.793274 665.618408,637.812317 
	C663.491150,644.031372 658.915710,649.429993 655.288757,655.099426 
	C654.791016,655.877441 653.398926,656.083313 652.420898,656.554077 
	C652.171082,655.554199 651.670288,654.544128 651.710510,653.556091 
	C652.088562,644.276367 652.524963,634.998657 653.010315,625.723755 
	C653.902771,608.668152 647.975891,592.774963 644.576782,576.458130 
	C644.025208,573.810425 642.539368,572.037048 639.142334,574.149841 
	C634.273254,577.178101 629.086487,579.701294 624.001648,582.376099 
	C613.336914,587.986267 602.662903,593.579224 591.968933,599.133362 
	C581.289001,604.680237 570.462769,609.957642 559.917786,615.748474 
	C549.953369,621.220520 540.412781,627.466797 530.429749,632.902344 
	C517.017395,640.205139 503.257416,646.868835 489.831757,654.148193 
	C472.315979,663.645386 454.954163,673.366028 436.280975,680.568726 
	C423.715546,685.415588 411.599670,691.424072 399.052460,696.323242 
	C390.147003,699.800476 380.894531,702.416870 371.727692,705.188293 
	C363.858582,707.567322 355.936676,709.806335 347.954498,711.766968 
	C339.956299,713.731567 331.907227,715.596191 323.785675,716.925659 
	C312.377594,718.793091 300.911621,720.414307 289.414246,721.593384 
	C280.683533,722.488647 271.858551,722.970703 263.087799,722.835876 
	C252.999466,722.680786 242.864639,722.123535 232.859085,720.869995 
	C220.083481,719.269531 207.000992,718.143250 194.805603,714.371765 
	C178.438690,709.310303 162.812546,701.866028 146.804199,695.608887 
	C145.501068,695.099548 143.453140,695.441284 142.238251,696.184021 
	C141.583694,696.584290 141.499619,698.868225 141.956818,699.971191 
	C143.902954,704.666260 145.751251,709.477112 148.366623,713.803528 
	C153.579758,722.427124 158.899261,731.034119 164.844513,739.157898 
	C178.970184,758.459778 194.412064,776.563965 215.865173,788.240540 
	C227.692841,794.678223 239.417801,801.539490 251.858780,806.545227 
	C262.931976,811.000610 274.773346,814.043152 286.556183,816.110962 
	C300.848053,818.619080 315.403656,820.059082 329.904175,820.789795 
	C339.424286,821.269592 349.048889,819.676636 359.531738,819.009399 
z"/>
<path
	d="
M923.217102,581.411011 
	C927.223206,580.507446 931.187683,579.239319 935.244080,578.775635 
	C943.840149,577.793091 952.500244,577.377808 961.101807,576.434753 
	C965.610718,575.940430 966.669067,578.006104 966.213684,581.872925 
	C963.957825,601.029053 962.857483,620.404480 959.253906,639.302979 
	C948.519897,695.595764 924.156494,745.900757 889.259644,791.130554 
	C851.782898,839.704163 805.761841,878.181641 751.344055,906.601990 
	C711.916504,927.193604 670.119751,940.955627 626.506287,948.960571 
	C583.830261,956.793457 540.846863,957.861511 497.649445,952.980530 
	C430.688568,945.414429 369.100494,923.107666 313.442047,885.356323 
	C294.644409,872.606384 277.737793,857.067566 259.989441,842.775452 
	C259.412567,842.310852 259.082733,841.539490 258.097260,840.147888 
	C264.982513,841.383423 270.948975,842.545044 276.946472,843.515320 
	C310.892151,849.007263 344.601318,847.663269 378.159973,840.257263 
	C407.367401,833.811462 435.509308,824.381531 462.356049,811.163086 
	C464.922150,809.899536 466.992645,809.960510 469.681213,811.498474 
	C518.749023,839.567444 571.323914,854.393433 628.118286,852.287048 
	C679.939941,850.365051 728.145996,836.468689 771.394043,807.202515 
	C790.525085,794.256348 807.445007,778.757935 823.139893,761.313721 
	C824.108032,761.547974 824.531860,761.795166 824.933044,762.385010 
	C815.870300,772.515686 807.426208,782.958618 797.608276,791.891541 
	C789.226379,799.517761 779.414490,805.629272 769.959106,812.001282 
	C761.911438,817.424561 753.843994,823.057556 745.112732,827.169800 
	C733.006409,832.871643 720.434875,837.713562 707.770874,842.077393 
	C679.482605,851.825012 650.143005,855.659729 620.328613,855.926086 
	C609.544067,856.022461 598.726746,855.676758 587.972351,854.882751 
	C579.591003,854.263916 571.083130,853.407288 562.987244,851.293701 
	C547.968506,847.372925 533.154602,842.629150 518.357971,837.906738 
	C503.520325,833.171265 489.234497,827.148987 476.023346,818.720581 
	C469.871155,814.795715 464.030975,813.223083 456.434143,817.431030 
	C445.589417,823.438293 433.932068,828.303284 422.138855,832.191223 
	C407.327240,837.074280 392.094818,840.753723 376.919861,844.441711 
	C361.135315,848.277893 345.116516,850.618164 328.764618,850.050049 
	C321.694122,849.804321 314.605499,850.133423 307.526306,850.069946 
	C301.459229,850.015503 295.392395,849.811707 289.328339,849.594238 
	C287.186554,849.517456 285.045502,848.978455 282.917603,849.050293 
	C278.985291,849.182678 277.878479,851.019165 280.492920,853.915649 
	C285.245453,859.181030 290.477539,864.037476 295.743774,868.805847 
	C298.667297,871.453003 301.957367,873.741028 305.269745,875.903748 
	C313.110748,881.023010 320.898071,886.258728 329.008087,890.924133 
	C343.266571,899.126648 357.529510,907.377930 372.222748,914.747192 
	C380.966064,919.132263 390.481689,922.020508 399.744476,925.316467 
	C412.777588,929.953979 425.733521,934.933228 439.032501,938.660034 
	C450.118256,941.766663 461.658478,943.240051 472.982849,945.509338 
	C492.668976,949.454163 512.576172,951.835754 532.615662,951.854797 
	C552.026062,951.873230 571.455994,951.000244 590.841492,949.892212 
	C601.873291,949.261597 612.894104,947.742432 623.805847,945.935059 
	C631.941711,944.587524 639.815063,941.674622 647.945435,940.269165 
	C667.447815,936.897644 685.989746,930.375305 704.458008,923.632751 
	C713.387878,920.372437 722.079407,916.428406 730.767151,912.544067 
	C740.710388,908.098450 750.728027,903.749084 760.336792,898.648560 
	C767.389709,894.904724 773.840698,890.025024 780.551941,885.639343 
	C788.550049,880.412720 796.955872,875.702087 804.436340,869.816223 
	C815.962219,860.747437 827.065186,851.105896 837.946899,841.264282 
	C847.775757,832.374817 857.775452,823.504211 866.421387,813.518433 
	C877.946716,800.207214 888.423889,785.965820 898.964905,771.835693 
	C903.373962,765.925537 906.839905,759.304565 910.646545,752.953979 
	C915.458008,744.927185 920.634460,737.073975 924.810547,728.724365 
	C928.907593,720.532837 931.896423,711.791016 935.468933,703.331909 
	C938.086121,697.134705 941.414734,691.180237 943.442627,684.804749 
	C946.949341,673.780151 950.139465,662.611755 952.639465,651.321411 
	C955.563416,638.116272 957.913269,624.762085 959.920898,611.383850 
	C961.194824,602.894653 960.741150,594.123535 962.297668,585.707336 
	C963.345215,580.043823 961.052124,579.549194 956.966980,580.032593 
	C946.633240,581.255371 936.319397,582.645264 925.961426,583.667480 
	C925.022522,582.714783 924.119812,582.062927 923.217102,581.411011 
z"/>
<path
	d="
M541.037720,345.915894 
	C540.738342,346.066895 540.438904,346.217834 539.492249,346.232361 
	C537.895508,345.740082 536.945984,345.384247 536.329773,344.873474 
	C538.774048,344.124268 540.885010,343.529938 543.316101,342.932648 
	C544.422058,342.295135 545.207947,341.660583 546.397095,341.009796 
	C549.221924,340.472076 551.664795,340.033356 554.061401,339.415283 
	C566.282837,336.263275 578.371521,332.451630 590.732422,330.017395 
	C612.796814,325.672302 635.176697,324.432159 657.545715,327.096954 
	C675.519775,329.238190 693.459717,331.899139 711.259094,335.175110 
	C720.229919,336.826202 729.202332,339.558594 737.563416,343.202972 
	C754.432739,350.555847 770.957703,358.718170 787.466431,366.867493 
	C792.737610,369.469543 797.813416,372.696136 802.438416,376.325378 
	C809.577271,381.927277 816.255371,388.116821 823.120605,394.066650 
	C829.134460,399.278534 835.745850,403.959900 841.003601,409.848480 
	C849.146912,418.968872 856.708923,428.667145 863.876282,438.583710 
	C871.198547,448.714539 879.230103,458.770172 884.071716,470.090240 
	C886.911804,476.730469 891.375305,478.263123 896.132629,479.782013 
	C910.136047,484.252777 924.426697,487.823883 938.606079,491.743164 
	C944.515320,493.376526 950.252563,496.434235 956.677002,494.351044 
	C955.940063,490.073059 955.759888,486.027161 954.514587,482.341064 
	C950.142090,469.398773 945.629211,456.493286 940.724609,443.745087 
	C937.406982,435.121796 934.182190,426.276947 929.428467,418.432617 
	C920.804810,404.202362 913.479858,389.154053 902.399780,376.391815 
	C891.695862,364.062866 882.642944,350.245331 871.476196,338.389496 
	C861.082642,327.354584 849.047668,317.818451 837.380554,308.046051 
	C828.651489,300.734589 819.619507,293.716949 810.240967,287.268677 
	C801.442627,281.219208 792.291199,275.543976 782.794434,270.682190 
	C768.604309,263.417816 754.123169,256.667786 739.481873,250.357697 
	C729.421509,246.021820 719.043396,242.228760 708.513062,239.224564 
	C694.072205,235.104736 679.456055,231.433487 664.723083,228.550919 
	C650.305237,225.730011 635.707214,223.380646 621.077393,222.215240 
	C605.361816,220.963364 589.517700,221.101868 573.728760,221.066132 
	C561.774231,221.039047 549.724915,220.878937 537.885315,222.237610 
	C521.498169,224.118149 505.268188,227.368942 488.970917,230.033020 
	C466.993103,233.625671 446.270813,241.387680 425.579285,249.217911 
	C420.326202,251.205826 415.219788,253.586288 410.070343,255.842010 
	C402.693298,259.073547 395.099670,261.913177 388.032410,265.724670 
	C378.331238,270.956696 369.017487,276.910797 359.573608,282.614899 
	C352.863312,286.667938 346.027435,290.551361 339.585083,294.999237 
	C332.660614,299.779938 326.005676,304.977203 319.456970,310.269684 
	C309.215118,318.546814 298.442352,326.342651 289.205231,335.644073 
	C276.882172,348.052917 265.531342,361.471832 254.304367,374.909302 
	C246.475952,384.279053 239.129303,394.123138 232.351700,404.278687 
	C225.671127,414.288879 219.762863,424.838745 213.917496,435.374695 
	C208.968155,444.295624 204.232468,453.373810 200.069229,462.680756 
	C196.236359,471.249146 193.292038,480.215088 189.669434,489.135712 
	C188.801483,489.486664 188.220428,489.707764 187.639374,489.928894 
	C189.623779,483.384766 191.181046,476.673370 193.667389,470.325836 
	C203.764328,444.549072 216.889145,420.343018 232.544250,397.524445 
	C272.453247,339.353882 324.025269,294.501038 386.815918,262.424744 
	C426.888275,241.953995 469.199493,228.587509 513.637024,221.751282 
	C545.545532,216.842499 577.629333,215.589676 609.796448,217.617538 
	C636.246887,219.285019 662.309875,223.579987 688.121094,229.850845 
	C746.115234,243.940613 797.822327,270.427582 843.718811,308.222809 
	C899.508667,354.165222 937.744141,411.922150 958.016785,481.400482 
	C960.098389,488.534546 961.678284,495.815033 963.582764,503.393005 
	C962.476196,503.458099 961.781250,503.708466 961.278625,503.498505 
	C938.321533,493.906921 914.471069,487.240204 890.213928,481.977997 
	C886.009033,481.065857 883.699829,478.931274 881.830383,475.161346 
	C859.396667,429.922302 826.012085,394.908569 782.910278,368.758911 
	C756.418579,352.686554 728.068665,341.534973 697.807800,335.533539 
	C660.736389,328.181458 623.423035,326.724274 586.187073,334.485565 
	C572.544067,337.329224 559.125793,341.251099 545.018433,344.488434 
	C543.300476,344.835785 542.169067,345.375824 541.037720,345.915894 
z"/>
<path
	d="
M459.651947,624.350830 
	C417.723389,640.884338 375.438751,654.928528 331.400635,663.130981 
	C288.828217,671.060486 246.074112,673.280273 203.292084,665.339111 
	C165.081711,658.246521 131.013306,642.355225 103.641060,614.165955 
	C84.430161,594.381592 71.356758,570.759888 63.159904,544.442322 
	C62.322613,541.754028 61.476635,539.068420 60.657257,536.374695 
	C60.629696,536.284119 60.847816,536.118774 61.008053,535.917053 
	C68.606857,540.221741 76.064903,544.839355 83.860458,548.791077 
	C109.744232,561.912231 137.475449,568.300354 166.184937,571.432129 
	C202.243332,575.365540 238.068100,572.907715 273.742981,567.856079 
	C305.380585,563.375977 336.707794,557.063904 367.391937,547.965942 
	C413.954803,534.160034 460.461304,520.163818 507.030090,506.378021 
	C519.469177,502.695648 531.985474,499.221344 544.604492,496.235687 
	C547.905334,495.454681 551.810974,496.501038 555.292114,497.326660 
	C581.555603,503.555847 604.571533,515.471375 622.266602,536.389526 
	C625.346191,540.030090 628.003052,544.028198 631.388733,548.578186 
	C626.107361,550.930786 621.617004,552.927673 617.129333,554.930664 
	C570.326599,575.820007 523.535095,596.734558 476.707520,617.568054 
	C471.240112,620.000427 465.574402,621.987000 459.651947,624.350830 
M66.893692,543.720459 
	C66.807655,543.671265 66.721619,543.622131 66.635582,543.572998 
	C66.756294,543.716125 66.877007,543.859314 67.009483,544.757935 
	C69.024185,549.080933 71.147049,553.357422 73.029907,557.737122 
	C76.399460,565.574890 78.972824,573.831970 83.049706,581.272217 
	C90.785347,595.389648 101.565697,607.288696 113.296837,618.181824 
	C124.093079,628.206726 135.179977,638.007385 149.352509,643.281128 
	C154.600281,645.233826 159.785767,647.356567 165.052872,649.254089 
	C175.247055,652.926453 185.353699,656.912842 195.722305,660.014771 
	C214.948898,665.766663 234.969452,666.005920 254.766434,666.771301 
	C268.299652,667.294495 281.928833,665.838684 295.490509,664.908875 
	C302.231537,664.446777 308.951385,663.375610 315.619537,662.224915 
	C324.736237,660.651672 333.818817,658.855042 342.871765,656.944641 
	C354.355560,654.521362 365.901886,652.284302 377.223145,649.232178 
	C388.240417,646.262024 399.034393,642.444946 409.876312,638.848755 
	C418.832092,635.878113 427.798309,632.905884 436.609528,629.540588 
	C448.778137,624.893066 460.834595,619.946533 472.885742,614.998047 
	C487.097931,609.162170 501.355469,603.418762 515.402832,597.204651 
	C528.067932,591.601929 540.418457,585.292664 553.013489,579.525879 
	C565.271545,573.913391 577.699158,568.672180 589.984314,563.117615 
	C597.922607,559.528503 605.708618,555.603943 613.623291,551.960754 
	C617.037720,550.389099 620.604614,549.148743 623.862488,547.853271 
	C620.344666,538.650146 615.469666,531.833496 608.341736,526.926025 
	C604.309021,524.149597 599.839050,522.015015 595.618652,519.502991 
	C589.160522,515.659058 583.066833,511.011810 576.242798,508.017517 
	C565.395203,503.257751 554.367249,498.066986 541.851013,501.005432 
	C539.451111,501.568817 537.103333,502.350616 534.714783,502.966278 
	C523.356323,505.893951 511.919128,508.545197 500.649628,511.781219 
	C488.578094,515.247498 476.688934,519.343689 464.671265,523.004333 
	C452.997284,526.560303 441.232666,529.819031 429.560242,533.380005 
	C417.108368,537.178894 404.817291,541.538696 392.276764,545.005310 
	C374.327179,549.967285 356.213959,554.336731 338.172546,558.966980 
	C329.836182,561.106445 321.540985,563.421814 313.158722,565.361816 
	C306.885773,566.813660 300.535522,568.015808 294.162598,568.932373 
	C283.043915,570.531372 271.894501,571.941345 260.733429,573.215027 
	C248.585800,574.601440 236.415100,576.712952 224.245651,576.774841 
	C203.172226,576.882202 182.074738,575.972290 161.022690,574.834839 
	C152.000946,574.347351 142.905258,572.869385 134.135925,570.672729 
	C123.419899,567.988342 113.165001,563.427490 102.425003,560.884827 
	C92.485313,558.531616 84.007446,553.801025 75.637001,548.417725 
	C72.930466,546.677124 69.889664,545.456177 66.893692,543.720459 
z"/>
<path
	d="
M793.232788,472.134674 
	C831.569885,477.425415 868.974792,484.531586 904.135132,500.249786 
	C904.062317,500.655518 903.989441,501.061249 903.916626,501.466980 
	C900.737061,501.077545 897.566895,500.474854 894.376404,500.334747 
	C878.421631,499.634216 862.452087,499.228271 846.507263,498.359833 
	C838.583130,497.928253 830.618103,497.187164 822.815735,495.784180 
	C801.394897,491.932465 779.851990,490.697968 758.148193,491.682861 
	C757.531616,491.710846 756.927124,492.005859 754.781921,492.605408 
	C766.307129,496.814941 776.572754,500.564453 786.838379,504.313965 
	C786.683960,504.888916 786.529541,505.463867 786.375122,506.038818 
	C782.291565,506.222992 778.204712,506.352753 774.125000,506.600128 
	C748.314941,508.165070 723.527100,514.513916 699.184021,522.823059 
	C685.650452,527.442505 672.189758,532.277771 658.734070,537.121155 
	C656.016296,538.099426 654.172241,537.833496 652.302734,535.361328 
	C636.787537,514.845642 617.547668,498.731628 594.632324,487.019806 
	C593.748840,486.568207 592.902100,486.020721 592.112610,485.420197 
	C591.778931,485.166351 591.637939,484.659180 591.047546,483.646790 
	C658.003235,470.058136 724.962524,463.847168 793.232788,472.134674 
M819.718567,479.763641 
	C810.849854,478.788788 801.923523,478.174744 793.123474,476.770081 
	C768.712036,472.873505 744.177063,471.363342 719.499512,472.387817 
	C702.779724,473.081940 686.063293,473.955292 669.367004,475.072144 
	C662.297546,475.545074 655.285278,476.860718 648.244202,477.771301 
	C637.266357,479.191010 626.276062,480.518890 615.311401,482.033600 
	C610.320374,482.723114 605.378174,483.766296 599.378418,484.833130 
	C600.987671,486.310394 601.830139,487.481232 602.972534,488.060486 
	C606.947388,490.076019 611.493103,491.270172 614.968628,493.902863 
	C622.264282,499.429321 629.390869,505.294373 635.887939,511.726501 
	C642.184814,517.960388 649.945679,522.984863 653.648315,531.677246 
	C654.139038,532.829285 657.137451,533.889038 658.549927,533.489685 
	C662.787109,532.291687 666.818115,530.360168 670.921814,528.695557 
	C677.174377,526.159363 683.292969,523.208801 689.700073,521.157898 
	C698.606445,518.306824 707.692871,515.989746 716.765015,513.691895 
	C727.482483,510.977356 738.252625,508.465332 749.028564,505.989929 
	C753.949646,504.859467 758.939270,504.027069 763.897766,503.059418 
	C763.914001,502.392670 763.930237,501.725922 763.946411,501.059174 
	C762.270386,500.195404 760.677979,499.029114 758.899170,498.536896 
	C756.044067,497.746826 753.003906,497.613525 750.164917,496.782562 
	C748.713562,496.357758 746.821106,495.236053 746.453064,494.026245 
	C746.169067,493.092682 747.751709,491.305450 748.875122,490.320770 
	C749.761169,489.544159 751.196716,489.102722 752.414246,489.042969 
	C761.028625,488.620178 769.671265,487.794373 778.263367,488.137299 
	C789.812317,488.598145 801.426086,489.349976 812.824768,491.157684 
	C826.228088,493.283295 839.456299,496.591583 853.114563,493.908325 
	C854.754944,493.586090 856.144775,491.987976 857.650757,490.981262 
	C856.134094,489.986603 854.713196,488.766388 853.070496,488.068420 
	C851.750793,487.507751 850.126221,487.719116 848.699097,487.348389 
	C839.317688,484.911194 829.953064,482.408966 819.718567,479.763641 
z"/>
<path
	d="
M535.996460,345.028381 
	C536.945984,345.384247 537.895508,345.740082 539.247681,346.148499 
	C532.253540,349.539764 524.818848,352.797333 517.466064,356.230072 
	C460.360443,382.890869 416.451019,424.107300 384.578339,478.129791 
	C375.140656,494.126190 367.492126,511.186218 359.238403,527.865051 
	C357.863647,530.643127 356.426300,532.270386 353.270142,532.989807 
	C322.440186,540.016296 291.555908,546.887146 259.980621,549.439514 
	C240.098892,551.046753 220.120499,551.566589 200.173477,552.193542 
	C194.060440,552.385620 187.907745,551.316711 181.388321,550.310547 
	C181.001266,548.873596 180.999100,547.951477 181.439453,547.020081 
	C184.588684,547.651672 187.295395,548.292480 189.586227,548.956665 
	C187.453827,548.980103 185.737305,548.980103 184.020782,548.980103 
	C184.048630,549.449768 184.076462,549.919495 184.104309,550.389160 
	C188.045135,549.923950 191.985962,549.458679 196.236816,548.706787 
	C203.988663,548.498962 211.446030,548.919739 218.868896,548.582214 
	C232.420731,547.965942 246.006378,547.389038 259.477631,545.892700 
	C274.559509,544.217590 289.590363,541.875916 304.530273,539.193970 
	C316.853973,536.981689 328.955353,533.543945 341.266052,531.241638 
	C348.602905,529.869507 355.386597,530.058228 358.027588,520.158875 
	C360.218597,511.946075 365.877350,504.654541 370.024902,496.968414 
	C375.690857,486.468353 380.688171,475.523071 387.245300,465.610840 
	C394.522614,454.609833 403.902740,444.997986 411.157349,433.984314 
	C421.257355,418.650879 435.414612,407.423370 448.746735,395.538910 
	C460.094513,385.423340 472.900269,376.661652 485.989594,368.858704 
	C499.759857,360.649811 514.610596,354.245361 529.048218,347.172882 
	C531.198486,346.119568 533.672302,345.726746 535.996460,345.028381 
z"/>
<path
	d="
M868.827087,657.172852 
	C834.944824,668.346130 805.896790,686.805847 782.104492,715.866028 
	C781.843933,712.672180 781.558533,711.009949 781.595764,709.354919 
	C782.133240,685.497986 790.683105,664.551697 805.239136,645.983398 
	C822.802124,623.579407 845.798889,608.272156 871.496033,596.824585 
	C879.817200,593.117554 888.594116,590.433289 897.399841,587.566895 
	C897.441650,588.573608 897.246216,589.294556 896.803406,590.286377 
	C891.977844,592.622498 887.450134,594.810974 882.804565,596.711548 
	C879.468201,598.076416 875.719666,598.588928 872.596069,600.291077 
	C860.437134,606.916992 847.783325,612.522949 836.538879,620.974670 
	C824.091492,630.330505 813.281372,640.999329 803.815674,653.260132 
	C793.177673,667.039551 790.244812,683.838745 785.123718,699.782654 
	C784.661011,701.223267 785.287109,703.013550 785.407593,704.641479 
	C792.840088,696.169312 801.119873,689.842712 810.101379,684.246033 
	C820.701477,677.640808 830.820740,670.209778 841.708130,664.140625 
	C847.886047,660.696716 855.183899,659.261963 862.330750,656.944275 
	C863.456177,656.323120 864.228271,655.680054 865.331909,655.027832 
	C866.105713,655.019165 866.547852,655.019592 867.088013,655.246216 
	C867.733032,656.039246 868.280090,656.606079 868.827087,657.172852 
z"/>
<path 
	d="
M824.955750,762.042358 
	C824.531860,761.795166 824.108032,761.547974 823.459229,761.202515 
	C829.484924,752.107178 836.057495,743.314514 841.922302,734.072754 
	C856.373047,711.301331 864.779419,686.232361 869.666504,659.477905 
	C870.453186,660.152832 870.756714,661.084900 871.044434,662.430786 
	C871.020264,664.226379 871.011841,665.608093 870.665771,667.180298 
	C869.899292,670.243225 869.470398,673.115662 868.984375,676.376709 
	C867.932861,680.844971 866.938538,684.924622 865.605103,689.060547 
	C864.877502,690.084534 864.489014,691.052307 864.074463,692.425842 
	C863.687500,695.220520 863.326660,697.609436 862.649109,700.042236 
	C861.905334,700.728027 861.478210,701.369751 861.030273,702.385071 
	C859.992798,705.505798 858.976196,708.252930 857.643799,711.043945 
	C856.912903,711.730103 856.497803,712.372253 855.905701,713.328308 
	C855.138611,715.428711 854.548523,717.215332 853.618774,719.057495 
	C852.870239,720.076782 852.461426,721.040466 852.035095,722.373596 
	C849.331238,727.495361 846.644836,732.247620 843.643555,737.043518 
	C842.917419,737.726868 842.506226,738.366577 841.933472,739.323120 
	C837.833069,745.426208 833.894226,751.212463 829.621826,757.034668 
	C828.537048,758.033997 827.785767,758.997375 827.017090,759.980469 
	C826.999695,760.000122 826.960510,760.034973 826.648621,760.064575 
	C825.908630,760.712158 825.480530,761.330139 825.029297,761.972839 
	C825.006287,761.997559 824.955750,762.042358 824.955750,762.042358 
z"/>
<path 
	d="
M176.862946,529.008728 
	C180.222961,516.113159 183.582947,503.217529 187.413605,490.659668 
	C187.950714,491.340088 188.017166,491.682709 188.055664,492.391113 
	C187.688492,494.168091 187.349274,495.579285 186.759796,497.173462 
	C186.665863,498.236115 186.822205,499.115784 186.979980,500.329071 
	C186.974655,501.107452 186.967880,501.552246 186.645676,502.041626 
	C185.915344,502.727417 185.500443,503.368561 185.060394,504.345123 
	C185.004822,505.127930 184.974396,505.575317 184.787994,506.109314 
	C184.738541,506.458618 184.845078,506.721344 184.963043,507.388123 
	C183.314987,514.189087 181.655502,520.585999 179.730682,527.170898 
	C178.597885,527.908875 177.730423,528.458801 176.862946,529.008728 
z"/>
<path  
	d="
M180.996948,547.029297 
	C180.999100,547.951477 181.001266,548.873596 181.008041,550.139648 
	C180.222534,550.509583 179.432404,550.535583 178.141724,550.085938 
	C176.858047,549.509155 176.074951,549.408020 175.291840,549.306946 
	C174.949127,547.755859 174.197983,546.165955 174.340698,544.660950 
	C174.759506,540.244263 175.533661,535.861328 176.672379,531.295166 
	C177.489075,531.752686 177.802032,532.380127 178.078537,533.436279 
	C178.014130,535.584412 177.986191,537.303833 177.674561,539.249023 
	C176.154297,542.083679 174.114441,544.758362 178.377228,546.962769 
	C179.499863,546.995239 180.248413,547.012268 180.996948,547.029297 
z"/>
<path
	d="
M922.799316,581.322998 
	C924.119812,582.062927 925.022522,582.714783 925.566345,583.685974 
	C923.134338,584.325500 921.061218,584.645752 918.843750,584.747559 
	C918.139343,584.671387 917.579224,584.813660 916.618896,584.972168 
	C915.151123,585.008667 914.083618,585.028870 912.696045,585.006348 
	C911.890320,584.585327 911.404663,584.207092 910.919067,583.828735 
	C914.739929,582.964172 918.560730,582.099609 922.799316,581.322998 
z"/>
<path 
	d="
M899.028076,587.071167 
	C901.773926,586.250366 904.519836,585.429504 907.630737,584.973633 
	C908.004517,585.890747 908.013306,586.442871 907.810913,587.256226 
	C906.731750,587.673035 905.863770,587.828674 904.796326,587.733093 
	C903.731140,587.976501 902.865356,588.471130 901.668579,588.975342 
	C900.896240,588.989868 900.454834,588.994873 899.908325,588.749512 
	C899.544739,588.023254 899.286438,587.547180 899.028076,587.071167 
z"/>
<path 
	d="
M871.060303,662.016907 
	C870.756714,661.084900 870.453186,660.152832 869.860352,659.129150 
	C869.432373,658.733459 869.293640,658.429443 868.990967,657.649170 
	C868.280090,656.606079 867.733032,656.039246 867.302124,654.978882 
	C869.187134,655.557068 871.276245,656.353455 872.558533,657.843811 
	C873.033813,658.396240 871.615173,660.578125 871.060303,662.016907 
z"/>
<path 
	d="
M178.114990,533.007629 
	C177.802032,532.380127 177.489075,531.752686 176.855103,530.958435 
	C176.542831,530.379517 176.551544,529.967346 176.711609,529.281982 
	C177.730423,528.458801 178.597885,527.908875 179.978973,527.389648 
	C179.700043,529.282715 178.907516,531.145203 178.114990,533.007629 
z"/>
<path 
	d="
M908.022095,586.995056 
	C908.013306,586.442871 908.004517,585.890747 907.988403,585.063477 
	C908.694092,584.459351 909.407227,584.130188 910.519653,583.814941 
	C911.404663,584.207092 911.890320,584.585327 912.616699,585.368103 
	C911.245728,586.180054 909.633911,586.587524 908.022095,586.995056 
z"/>
<path
	d="
M541.249268,346.065430 
	C542.169067,345.375824 543.300476,344.835785 544.644287,344.471252 
	C543.724731,345.169495 542.592712,345.692230 541.249268,346.065430 
z"/>
<path 
	d="
M898.727783,587.056274 
	C899.286438,587.547180 899.544739,588.023254 899.705017,589.010620 
	C898.754883,589.686523 897.902893,589.851074 897.050781,590.015564 
	C897.246216,589.294556 897.441650,588.573608 897.776245,587.604431 
	C898.086060,587.251282 898.256836,587.146301 898.727783,587.056274 
z"/>
<path 
	d="
M188.083633,492.025360 
	C188.017166,491.682709 187.950714,491.340088 187.771332,490.482910 
	C187.658417,489.968384 187.694839,489.969055 187.667114,489.948975 
	C188.220428,489.707764 188.801483,489.486664 189.679626,489.484222 
	C189.345688,490.477081 188.714661,491.251221 188.083633,492.025360 
z"/>
<path 
	d="
M175.454681,549.588867 
	C176.074951,549.408020 176.858047,549.509155 177.801605,549.866821 
	C177.180542,550.039124 176.399033,549.954956 175.454681,549.588867 
z"/>
<path  
	d="
M359.079224,819.010620 
	C349.048889,819.676636 339.424286,821.269592 329.904175,820.789795 
	C315.403656,820.059082 300.848053,818.619080 286.556183,816.110962 
	C274.773346,814.043152 262.931976,811.000610 251.858780,806.545227 
	C239.417801,801.539490 227.692841,794.678223 215.865173,788.240540 
	C194.412064,776.563965 178.970184,758.459778 164.844513,739.157898 
	C158.899261,731.034119 153.579758,722.427124 148.366623,713.803528 
	C145.751251,709.477112 143.902954,704.666260 141.956818,699.971191 
	C141.499619,698.868225 141.583694,696.584290 142.238251,696.184021 
	C143.453140,695.441284 145.501068,695.099548 146.804199,695.608887 
	C162.812546,701.866028 178.438690,709.310303 194.805603,714.371765 
	C207.000992,718.143250 220.083481,719.269531 232.859085,720.869995 
	C242.864639,722.123535 252.999466,722.680786 263.087799,722.835876 
	C271.858551,722.970703 280.683533,722.488647 289.414246,721.593384 
	C300.911621,720.414307 312.377594,718.793091 323.785675,716.925659 
	C331.907227,715.596191 339.956299,713.731567 347.954498,711.766968 
	C355.936676,709.806335 363.858582,707.567322 371.727692,705.188293 
	C380.894531,702.416870 390.147003,699.800476 399.052460,696.323242 
	C411.599670,691.424072 423.715546,685.415588 436.280975,680.568726 
	C454.954163,673.366028 472.315979,663.645386 489.831757,654.148193 
	C503.257416,646.868835 517.017395,640.205139 530.429749,632.902344 
	C540.412781,627.466797 549.953369,621.220520 559.917786,615.748474 
	C570.462769,609.957642 581.289001,604.680237 591.968933,599.133362 
	C602.662903,593.579224 613.336914,587.986267 624.001648,582.376099 
	C629.086487,579.701294 634.273254,577.178101 639.142334,574.149841 
	C642.539368,572.037048 644.025208,573.810425 644.576782,576.458130 
	C647.975891,592.774963 653.902771,608.668152 653.010315,625.723755 
	C652.524963,634.998657 652.088562,644.276367 651.710510,653.556091 
	C651.670288,654.544128 652.171082,655.554199 652.420898,656.554077 
	C653.398926,656.083313 654.791016,655.877441 655.288757,655.099426 
	C658.915710,649.429993 663.491150,644.031372 665.618408,637.812317 
	C669.387390,626.793274 672.130371,615.351013 674.375549,603.903931 
	C676.514954,592.995911 675.751526,581.854370 674.411072,570.831970 
	C673.879456,566.461304 672.822937,562.326355 678.783203,560.387024 
	C685.262085,558.278870 691.391479,555.107544 697.851807,552.929321 
	C711.094116,548.464539 724.392151,544.138611 737.790222,540.170959 
	C747.084473,537.418518 756.500671,534.922729 766.013794,533.104431 
	C777.354126,530.937012 788.834290,529.444885 800.294373,527.975952 
	C812.194946,526.450500 824.119812,524.980042 836.078918,524.085815 
	C846.667236,523.294006 857.359802,522.570679 867.930237,523.166748 
	C885.341309,524.148560 902.747681,525.774841 920.047974,527.977905 
	C932.958130,529.621948 945.718323,532.501770 958.500061,535.057434 
	C962.015076,535.760254 965.405579,537.173950 968.787781,538.436584 
	C979.109253,542.289673 989.411621,546.195068 999.695129,550.148438 
	C1004.287109,551.913879 1008.837708,553.792725 1013.356384,555.737915 
	C1014.286133,556.138184 1014.989929,557.063293 1015.797852,557.746460 
	C1015.641602,558.190796 1015.485291,558.635193 1015.329041,559.079529 
	C1011.229187,558.101074 1007.107483,557.204834 1003.036011,556.120300 
	C999.242554,555.109924 995.569580,553.493713 991.725586,552.857178 
	C982.596130,551.345520 973.431213,549.686157 964.217651,549.129211 
	C950.293579,548.287537 936.269897,548.923401 922.373474,547.840881 
	C907.709412,546.698486 894.146851,551.143066 880.153076,553.854858 
	C861.257996,557.516602 843.032898,563.319885 825.375427,570.622131 
	C813.649109,575.471436 802.951721,582.748169 791.445129,588.202820 
	C770.835571,597.972839 752.951660,611.850464 734.567688,624.974976 
	C721.459900,634.332764 708.714844,644.197266 695.705078,653.694763 
	C692.810364,655.807861 689.331421,657.111816 686.390442,659.172241 
	C681.017395,662.936584 675.850159,666.994324 670.588196,670.917664 
	C660.652466,678.325500 650.751038,685.780151 640.759705,693.112366 
	C630.803162,700.418884 620.909119,707.827209 610.703003,714.772644 
	C599.796631,722.194641 588.633484,729.249390 577.444031,736.243042 
	C563.625244,744.880188 549.801086,753.525574 535.710693,761.704834 
	C527.760803,766.319702 519.356995,770.189758 511.006134,774.069214 
	C494.650635,781.667419 478.303741,789.306580 461.714935,796.368896 
	C455.092163,799.188354 447.833618,800.509521 440.872803,802.541138 
	C429.945557,805.730652 419.175964,809.678162 408.063416,811.959045 
	C394.659637,814.710266 380.968353,816.062744 367.399139,818.004089 
	C364.782288,818.378479 362.154480,818.676270 359.079224,819.010620 
z"/>
<path 
	d="
M896.803467,590.286377 
	C897.902893,589.851074 898.754883,589.686523 899.810181,589.260925 
	C900.454834,588.994873 900.896240,588.989868 902.006958,588.984802 
	C903.449524,588.651184 904.222656,588.317749 904.995789,587.984314 
	C905.863770,587.828674 906.731750,587.673035 907.810913,587.256226 
	C909.633911,586.587524 911.245728,586.180054 912.936829,585.410889 
	C914.083618,585.028870 915.151123,585.008667 916.946594,584.987793 
	C918.112427,584.980042 918.550232,584.973022 918.988098,584.966003 
	C921.061218,584.645752 923.134338,584.325500 925.602539,583.986755 
	C936.319397,582.645264 946.633240,581.255371 956.966980,580.032593 
	C961.052124,579.549194 963.345215,580.043823 962.297668,585.707336 
	C960.741150,594.123535 961.194824,602.894653 959.920898,611.383850 
	C957.913269,624.762085 955.563416,638.116272 952.639465,651.321411 
	C950.139465,662.611755 946.949341,673.780151 943.442627,684.804749 
	C941.414734,691.180237 938.086121,697.134705 935.468933,703.331909 
	C931.896423,711.791016 928.907593,720.532837 924.810547,728.724365 
	C920.634460,737.073975 915.458008,744.927185 910.646545,752.953979 
	C906.839905,759.304565 903.373962,765.925537 898.964905,771.835693 
	C888.423889,785.965820 877.946716,800.207214 866.421387,813.518433 
	C857.775452,823.504211 847.775757,832.374817 837.946899,841.264282 
	C827.065186,851.105896 815.962219,860.747437 804.436340,869.816223 
	C796.955872,875.702087 788.550049,880.412720 780.551941,885.639343 
	C773.840698,890.025024 767.389709,894.904724 760.336792,898.648560 
	C750.728027,903.749084 740.710388,908.098450 730.767151,912.544067 
	C722.079407,916.428406 713.387878,920.372437 704.458008,923.632751 
	C685.989746,930.375305 667.447815,936.897644 647.945435,940.269165 
	C639.815063,941.674622 631.941711,944.587524 623.805847,945.935059 
	C612.894104,947.742432 601.873291,949.261597 590.841492,949.892212 
	C571.455994,951.000244 552.026062,951.873230 532.615662,951.854797 
	C512.576172,951.835754 492.668976,949.454163 472.982849,945.509338 
	C461.658478,943.240051 450.118256,941.766663 439.032501,938.660034 
	C425.733521,934.933228 412.777588,929.953979 399.744476,925.316467 
	C390.481689,922.020508 380.966064,919.132263 372.222748,914.747192 
	C357.529510,907.377930 343.266571,899.126648 329.008087,890.924133 
	C320.898071,886.258728 313.110748,881.023010 305.269745,875.903748 
	C301.957367,873.741028 298.667297,871.453003 295.743774,868.805847 
	C290.477539,864.037476 285.245453,859.181030 280.492920,853.915649 
	C277.878479,851.019165 278.985291,849.182678 282.917603,849.050293 
	C285.045502,848.978455 287.186554,849.517456 289.328339,849.594238 
	C295.392395,849.811707 301.459229,850.015503 307.526306,850.069946 
	C314.605499,850.133423 321.694122,849.804321 328.764618,850.050049 
	C345.116516,850.618164 361.135315,848.277893 376.919861,844.441711 
	C392.094818,840.753723 407.327240,837.074280 422.138855,832.191223 
	C433.932068,828.303284 445.589417,823.438293 456.434143,817.431030 
	C464.030975,813.223083 469.871155,814.795715 476.023346,818.720581 
	C489.234497,827.148987 503.520325,833.171265 518.357971,837.906738 
	C533.154602,842.629150 547.968506,847.372925 562.987244,851.293701 
	C571.083130,853.407288 579.591003,854.263916 587.972351,854.882751 
	C598.726746,855.676758 609.544067,856.022461 620.328613,855.926086 
	C650.143005,855.659729 679.482605,851.825012 707.770874,842.077393 
	C720.434875,837.713562 733.006409,832.871643 745.112732,827.169800 
	C753.843994,823.057556 761.911438,817.424561 769.959106,812.001282 
	C779.414490,805.629272 789.226379,799.517761 797.608276,791.891541 
	C807.426208,782.958618 815.870300,772.515686 824.933044,762.385010 
	C824.955750,762.042358 825.006287,761.997559 825.340088,761.946289 
	C826.102783,761.274963 826.531677,760.654968 826.960571,760.034973 
	C826.960510,760.034973 826.999695,760.000122 827.353027,759.957275 
	C828.456055,758.942505 829.205750,757.970642 829.955444,756.998718 
	C833.894226,751.212463 837.833069,745.426208 842.240662,739.274292 
	C843.125732,738.272278 843.542114,737.636047 843.958496,736.999878 
	C846.644836,732.247620 849.331238,727.495361 852.315247,722.226807 
	C853.061462,720.807617 853.509949,719.904785 853.958496,719.001953 
	C854.548523,717.215332 855.138611,715.428711 856.214172,713.277161 
	C857.119629,712.274780 857.539612,711.637390 857.959595,711.000000 
	C858.976196,708.252930 859.992798,705.505798 861.343140,702.336426 
	C862.106506,701.275513 862.536133,700.636902 862.965820,699.998291 
	C863.326660,697.609436 863.687500,695.220520 864.405457,692.359009 
	C865.156433,690.925720 865.550354,689.964966 865.944214,689.004272 
	C866.938538,684.924622 867.932861,680.844971 869.341919,676.309937 
	C872.082947,673.168396 872.915161,670.272095 871.003418,666.989868 
	C871.011841,665.608093 871.020264,664.226379 871.044434,662.430786 
	C871.615173,660.578125 873.033813,658.396240 872.558533,657.843811 
	C871.276245,656.353455 869.187134,655.557068 867.204102,654.752686 
	C866.547852,655.019592 866.105713,655.019165 864.982666,655.021362 
	C863.526978,655.656799 862.752197,656.289551 861.977417,656.922363 
	C855.183899,659.261963 847.886047,660.696716 841.708130,664.140625 
	C830.820740,670.209778 820.701477,677.640808 810.101379,684.246033 
	C801.119873,689.842712 792.840088,696.169312 785.407593,704.641479 
	C785.287109,703.013550 784.661011,701.223267 785.123718,699.782654 
	C790.244812,683.838745 793.177673,667.039551 803.815674,653.260132 
	C813.281372,640.999329 824.091492,630.330505 836.538879,620.974670 
	C847.783325,612.522949 860.437134,606.916992 872.596069,600.291077 
	C875.719666,598.588928 879.468201,598.076416 882.804565,596.711548 
	C887.450134,594.810974 891.977844,592.622498 896.803467,590.286377 
z"/>
<path 
	d="
M188.055664,492.391113 
	C188.714661,491.251221 189.345688,490.477081 189.966522,489.354401 
	C193.292038,480.215088 196.236359,471.249146 200.069229,462.680756 
	C204.232468,453.373810 208.968155,444.295624 213.917496,435.374695 
	C219.762863,424.838745 225.671127,414.288879 232.351700,404.278687 
	C239.129303,394.123138 246.475952,384.279053 254.304367,374.909302 
	C265.531342,361.471832 276.882172,348.052917 289.205231,335.644073 
	C298.442352,326.342651 309.215118,318.546814 319.456970,310.269684 
	C326.005676,304.977203 332.660614,299.779938 339.585083,294.999237 
	C346.027435,290.551361 352.863312,286.667938 359.573608,282.614899 
	C369.017487,276.910797 378.331238,270.956696 388.032410,265.724670 
	C395.099670,261.913177 402.693298,259.073547 410.070343,255.842010 
	C415.219788,253.586288 420.326202,251.205826 425.579285,249.217911 
	C446.270813,241.387680 466.993103,233.625671 488.970917,230.033020 
	C505.268188,227.368942 521.498169,224.118149 537.885315,222.237610 
	C549.724915,220.878937 561.774231,221.039047 573.728760,221.066132 
	C589.517700,221.101868 605.361816,220.963364 621.077393,222.215240 
	C635.707214,223.380646 650.305237,225.730011 664.723083,228.550919 
	C679.456055,231.433487 694.072205,235.104736 708.513062,239.224564 
	C719.043396,242.228760 729.421509,246.021820 739.481873,250.357697 
	C754.123169,256.667786 768.604309,263.417816 782.794434,270.682190 
	C792.291199,275.543976 801.442627,281.219208 810.240967,287.268677 
	C819.619507,293.716949 828.651489,300.734589 837.380554,308.046051 
	C849.047668,317.818451 861.082642,327.354584 871.476196,338.389496 
	C882.642944,350.245331 891.695862,364.062866 902.399780,376.391815 
	C913.479858,389.154053 920.804810,404.202362 929.428467,418.432617 
	C934.182190,426.276947 937.406982,435.121796 940.724609,443.745087 
	C945.629211,456.493286 950.142090,469.398773 954.514587,482.341064 
	C955.759888,486.027161 955.940063,490.073059 956.677002,494.351044 
	C950.252563,496.434235 944.515320,493.376526 938.606079,491.743164 
	C924.426697,487.823883 910.136047,484.252777 896.132629,479.782013 
	C891.375305,478.263123 886.911804,476.730469 884.071716,470.090240 
	C879.230103,458.770172 871.198547,448.714539 863.876282,438.583710 
	C856.708923,428.667145 849.146912,418.968872 841.003601,409.848480 
	C835.745850,403.959900 829.134460,399.278534 823.120605,394.066650 
	C816.255371,388.116821 809.577271,381.927277 802.438416,376.325378 
	C797.813416,372.696136 792.737610,369.469543 787.466431,366.867493 
	C770.957703,358.718170 754.432739,350.555847 737.563416,343.202972 
	C729.202332,339.558594 720.229919,336.826202 711.259094,335.175110 
	C693.459717,331.899139 675.519775,329.238190 657.545715,327.096954 
	C635.176697,324.432159 612.796814,325.672302 590.732422,330.017395 
	C578.371521,332.451630 566.282837,336.263275 554.061401,339.415283 
	C551.664795,340.033356 549.221924,340.472076 546.047974,341.007263 
	C544.529053,341.659180 543.762512,342.297394 542.995972,342.935638 
	C540.885010,343.529938 538.774048,344.124268 536.329773,344.873474 
	C533.672302,345.726746 531.198486,346.119568 529.048218,347.172882 
	C514.610596,354.245361 499.759857,360.649811 485.989594,368.858704 
	C472.900269,376.661652 460.094513,385.423340 448.746735,395.538910 
	C435.414612,407.423370 421.257355,418.650879 411.157349,433.984314 
	C403.902740,444.997986 394.522614,454.609833 387.245300,465.610840 
	C380.688171,475.523071 375.690857,486.468353 370.024902,496.968414 
	C365.877350,504.654541 360.218597,511.946075 358.027588,520.158875 
	C355.386597,530.058228 348.602905,529.869507 341.266052,531.241638 
	C328.955353,533.543945 316.853973,536.981689 304.530273,539.193970 
	C289.590363,541.875916 274.559509,544.217590 259.477631,545.892700 
	C246.006378,547.389038 232.420731,547.965942 218.868896,548.582214 
	C211.446030,548.919739 203.988663,548.498962 195.817291,548.707642 
	C193.392502,548.974548 191.697311,548.953979 190.002106,548.933350 
	C187.295395,548.292480 184.588684,547.651672 181.439453,547.020081 
	C180.248413,547.012268 179.499863,546.995239 178.376175,546.525024 
	C177.986771,543.722290 177.972519,541.372803 177.958252,539.023315 
	C177.986191,537.303833 178.014130,535.584412 178.078522,533.436279 
	C178.907516,531.145203 179.700043,529.282715 180.244308,527.201599 
	C181.655502,520.585999 183.314987,514.189087 184.973740,507.147858 
	C184.973007,506.503510 184.943970,506.022736 184.943970,506.022736 
	C184.974396,505.575317 185.004822,505.127930 185.369263,504.296326 
	C186.122543,503.273743 186.541824,502.635376 186.961105,501.997009 
	C186.967880,501.552246 186.974655,501.107452 187.232742,500.149170 
	C187.326050,498.753937 187.168045,497.872223 187.010040,496.990479 
	C187.349274,495.579285 187.688492,494.168091 188.055664,492.391113 
z"/>
<path 
	d="
M543.316101,342.932648 
	C543.762512,342.297394 544.529053,341.659180 545.644714,341.023499 
	C545.207947,341.660583 544.422058,342.295135 543.316101,342.932648 
z"/>
<path 
	d="
M67.001755,543.997559 
	C69.889664,545.456177 72.930466,546.677124 75.637001,548.417725 
	C84.007446,553.801025 92.485313,558.531616 102.425003,560.884827 
	C113.165001,563.427490 123.419899,567.988342 134.135925,570.672729 
	C142.905258,572.869385 152.000946,574.347351 161.022690,574.834839 
	C182.074738,575.972290 203.172226,576.882202 224.245651,576.774841 
	C236.415100,576.712952 248.585800,574.601440 260.733429,573.215027 
	C271.894501,571.941345 283.043915,570.531372 294.162598,568.932373 
	C300.535522,568.015808 306.885773,566.813660 313.158722,565.361816 
	C321.540985,563.421814 329.836182,561.106445 338.172546,558.966980 
	C356.213959,554.336731 374.327179,549.967285 392.276764,545.005310 
	C404.817291,541.538696 417.108368,537.178894 429.560242,533.380005 
	C441.232666,529.819031 452.997284,526.560303 464.671265,523.004333 
	C476.688934,519.343689 488.578094,515.247498 500.649628,511.781219 
	C511.919128,508.545197 523.356323,505.893951 534.714783,502.966278 
	C537.103333,502.350616 539.451111,501.568817 541.851013,501.005432 
	C554.367249,498.066986 565.395203,503.257751 576.242798,508.017517 
	C583.066833,511.011810 589.160522,515.659058 595.618652,519.502991 
	C599.839050,522.015015 604.309021,524.149597 608.341736,526.926025 
	C615.469666,531.833496 620.344666,538.650146 623.862488,547.853271 
	C620.604614,549.148743 617.037720,550.389099 613.623291,551.960754 
	C605.708618,555.603943 597.922607,559.528503 589.984314,563.117615 
	C577.699158,568.672180 565.271545,573.913391 553.013489,579.525879 
	C540.418457,585.292664 528.067932,591.601929 515.402832,597.204651 
	C501.355469,603.418762 487.097931,609.162170 472.885742,614.998047 
	C460.834595,619.946533 448.778137,624.893066 436.609528,629.540588 
	C427.798309,632.905884 418.832092,635.878113 409.876312,638.848755 
	C399.034393,642.444946 388.240417,646.262024 377.223145,649.232178 
	C365.901886,652.284302 354.355560,654.521362 342.871765,656.944641 
	C333.818817,658.855042 324.736237,660.651672 315.619537,662.224915 
	C308.951385,663.375610 302.231537,664.446777 295.490509,664.908875 
	C281.928833,665.838684 268.299652,667.294495 254.766434,666.771301 
	C234.969452,666.005920 214.948898,665.766663 195.722305,660.014771 
	C185.353699,656.912842 175.247055,652.926453 165.052872,649.254089 
	C159.785767,647.356567 154.600281,645.233826 149.352509,643.281128 
	C135.179977,638.007385 124.093079,628.206726 113.296837,618.181824 
	C101.565697,607.288696 90.785347,595.389648 83.049706,581.272217 
	C78.972824,573.831970 76.399460,565.574890 73.029907,557.737122 
	C71.147049,553.357422 69.024185,549.080933 67.004745,544.378967 
	C67.000000,544.000000 67.001755,543.997559 67.001755,543.997559 
z"/>
<path 
	d="
M66.998856,544.001221 
	C66.877007,543.859314 66.756294,543.716125 66.635582,543.572998 
	C66.721619,543.622131 66.807655,543.671265 66.947723,543.859009 
	C67.001755,543.997559 67.000000,544.000000 66.998856,544.001221 
z"/>
<path
	d="
M820.150757,479.845825 
	C829.953064,482.408966 839.317688,484.911194 848.699097,487.348389 
	C850.126221,487.719116 851.750793,487.507751 853.070496,488.068420 
	C854.713196,488.766388 856.134094,489.986603 857.650757,490.981262 
	C856.144775,491.987976 854.754944,493.586090 853.114563,493.908325 
	C839.456299,496.591583 826.228088,493.283295 812.824768,491.157684 
	C801.426086,489.349976 789.812317,488.598145 778.263367,488.137299 
	C769.671265,487.794373 761.028625,488.620178 752.414246,489.042969 
	C751.196716,489.102722 749.761169,489.544159 748.875122,490.320770 
	C747.751709,491.305450 746.169067,493.092682 746.453064,494.026245 
	C746.821106,495.236053 748.713562,496.357758 750.164917,496.782562 
	C753.003906,497.613525 756.044067,497.746826 758.899170,498.536896 
	C760.677979,499.029114 762.270386,500.195404 763.946411,501.059174 
	C763.930237,501.725922 763.914001,502.392670 763.897766,503.059418 
	C758.939270,504.027069 753.949646,504.859467 749.028564,505.989929 
	C738.252625,508.465332 727.482483,510.977356 716.765015,513.691895 
	C707.692871,515.989746 698.606445,518.306824 689.700073,521.157898 
	C683.292969,523.208801 677.174377,526.159363 670.921814,528.695557 
	C666.818115,530.360168 662.787109,532.291687 658.549927,533.489685 
	C657.137451,533.889038 654.139038,532.829285 653.648315,531.677246 
	C649.945679,522.984863 642.184814,517.960388 635.887939,511.726501 
	C629.390869,505.294373 622.264282,499.429321 614.968628,493.902863 
	C611.493103,491.270172 606.947388,490.076019 602.972534,488.060486 
	C601.830139,487.481232 600.987671,486.310394 599.378418,484.833130 
	C605.378174,483.766296 610.320374,482.723114 615.311401,482.033600 
	C626.276062,480.518890 637.266357,479.191010 648.244202,477.771301 
	C655.285278,476.860718 662.297546,475.545074 669.367004,475.072144 
	C686.063293,473.955292 702.779724,473.081940 719.499512,472.387817 
	C744.177063,471.363342 768.712036,472.873505 793.123474,476.770081 
	C801.923523,478.174744 810.849854,478.788788 820.150757,479.845825 
z"/>
<path
	d="
M189.586227,548.956726 
	C191.697311,548.953979 193.392502,548.974548 195.507248,548.994324 
	C191.985962,549.458679 188.045135,549.923950 184.104309,550.389160 
	C184.076462,549.919495 184.048630,549.449768 184.020782,548.980103 
	C185.737305,548.980103 187.453827,548.980103 189.586227,548.956726 
z"/>
<path  
	d="
M862.330750,656.944275 
	C862.752197,656.289551 863.526978,655.656799 864.651062,655.030518 
	C864.228271,655.680054 863.456177,656.323120 862.330750,656.944275 
z"/>
<path  
	d="
M870.665833,667.180298 
	C872.915161,670.272095 872.082947,673.168396 869.399170,675.921387 
	C869.470398,673.115662 869.899292,670.243225 870.665833,667.180298 
z"/>
<path 
	d="
M829.621887,757.034668 
	C829.205750,757.970642 828.456055,758.942505 827.370361,759.937622 
	C827.785767,758.997375 828.537048,758.033997 829.621887,757.034668 
z"/>
<path 
	d="
M865.605103,689.060547 
	C865.550354,689.964966 865.156433,690.925720 864.431519,691.953247 
	C864.489014,691.052307 864.877502,690.084534 865.605103,689.060547 
z"/>
<path  
	d="
M853.618774,719.057495 
	C853.509949,719.904785 853.061462,720.807617 852.332764,721.857300 
	C852.461426,721.040466 852.870239,720.076782 853.618774,719.057495 
z"/>
<path
	d="
M826.648682,760.064575 
	C826.531677,760.654968 826.102783,761.274963 825.363159,761.921509 
	C825.480530,761.330139 825.908630,760.712158 826.648682,760.064575 
z"/>
<path
	d="
M843.643555,737.043518 
	C843.542114,737.636047 843.125732,738.272278 842.402222,738.957397 
	C842.506226,738.366577 842.917419,737.726868 843.643555,737.043518 
z"/>
<path 
	d="
M857.643799,711.043945 
	C857.539612,711.637390 857.119629,712.274780 856.391174,712.963318 
	C856.497803,712.372253 856.912903,711.730103 857.643799,711.043945 
z"/>
<path 
	d="
M862.649048,700.042236 
	C862.536133,700.636902 862.106506,701.275513 861.364014,701.962769 
	C861.478210,701.369751 861.905334,700.728027 862.649048,700.042236 
z"/>
<path 
	d="
M186.759781,497.173462 
	C187.168045,497.872223 187.326050,498.753937 187.231293,499.815552 
	C186.822205,499.115784 186.665863,498.236115 186.759781,497.173462 
z"/>
<path 
	d="
M186.645676,502.041626 
	C186.541824,502.635376 186.122543,503.273743 185.394409,503.960938 
	C185.500443,503.368561 185.915344,502.727417 186.645676,502.041626 
z"/>
<path 
	d="
M184.787994,506.109314 
	C184.943970,506.022736 184.973007,506.503510 184.962311,506.743774 
	C184.845078,506.721344 184.738541,506.458618 184.787994,506.109314 
z"/>
<path 
	d="
M177.674561,539.249023 
	C177.972519,541.372803 177.986771,543.722290 178.002075,546.509521 
	C174.114441,544.758362 176.154297,542.083679 177.674561,539.249023 
z"/>
<path 
	d="
M918.843750,584.747559 
	C918.550232,584.973022 918.112427,584.980042 917.346863,584.971497 
	C917.579224,584.813660 918.139343,584.671387 918.843750,584.747559 
z"/>
<path 
	d="
M904.796326,587.733093 
	C904.222656,588.317749 903.449524,588.651184 902.338013,588.975220 
	C902.865356,588.471130 903.731140,587.976501 904.796326,587.733093 
z"/>
</svg>